<mxfile host="app.diagrams.net" modified="2024-05-03T04:16:35.132Z" agent="Mozilla/5.0 (Windows NT 10.0; Win64; x64) AppleWebKit/537.36 (KHTML, like Gecko) Chrome/124.0.0.0 Safari/537.36" etag="vyJFHpsXae4rOqMSd4q3" version="24.3.1" type="device">
  <diagram name="Page-1" id="5f0bae14-7c28-e335-631c-24af17079c00">
    <mxGraphModel dx="2100" dy="1978" grid="1" gridSize="10" guides="1" tooltips="1" connect="1" arrows="1" fold="1" page="1" pageScale="1" pageWidth="1100" pageHeight="850" background="none" math="0" shadow="0">
      <root>
        <mxCell id="0" />
        <mxCell id="1" parent="0" />
        <mxCell id="CGSiHUwSnQDOPpYmyWLb-1" value="" style="shape=folder;fontStyle=1;tabWidth=80;tabHeight=30;tabPosition=left;html=1;boundedLbl=1;whiteSpace=wrap;" vertex="1" parent="1">
          <mxGeometry x="110" y="-170" width="1780" height="1500" as="geometry" />
        </mxCell>
        <mxCell id="CGSiHUwSnQDOPpYmyWLb-2" value="&lt;font style=&quot;font-size: 30px;&quot;&gt;Sistema Mucle UUUP&lt;/font&gt;" style="text;html=1;align=center;verticalAlign=middle;whiteSpace=wrap;rounded=0;" vertex="1" parent="1">
          <mxGeometry x="841.25" y="-90" width="317.5" height="30" as="geometry" />
        </mxCell>
        <mxCell id="CGSiHUwSnQDOPpYmyWLb-3" value="&lt;font style=&quot;font-size: 17px;&quot;&gt;Log-in&lt;/font&gt;" style="shape=module;align=left;spacingLeft=20;align=center;verticalAlign=top;whiteSpace=wrap;html=1;" vertex="1" parent="1">
          <mxGeometry x="240" y="50" width="220" height="110" as="geometry" />
        </mxCell>
        <mxCell id="CGSiHUwSnQDOPpYmyWLb-4" value="&lt;font style=&quot;font-size: 17px;&quot;&gt;Persistência de dados&lt;/font&gt;" style="shape=module;align=left;spacingLeft=20;align=center;verticalAlign=top;whiteSpace=wrap;html=1;" vertex="1" parent="1">
          <mxGeometry x="1530" y="50" width="220" height="110" as="geometry" />
        </mxCell>
        <mxCell id="CGSiHUwSnQDOPpYmyWLb-6" value="&lt;font style=&quot;font-size: 17px;&quot;&gt;Prisma&amp;nbsp;&lt;/font&gt;" style="shape=module;align=left;spacingLeft=20;align=center;verticalAlign=top;whiteSpace=wrap;html=1;" vertex="1" parent="1">
          <mxGeometry x="1530" y="340" width="220" height="110" as="geometry" />
        </mxCell>
        <mxCell id="CGSiHUwSnQDOPpYmyWLb-8" value="" style="endArrow=oval;html=1;rounded=0;endFill=0;strokeWidth=1;endSize=17;exitX=0.5;exitY=0;exitDx=0;exitDy=0;" edge="1" parent="1" source="CGSiHUwSnQDOPpYmyWLb-6">
          <mxGeometry width="50" height="50" relative="1" as="geometry">
            <mxPoint x="1640" y="330" as="sourcePoint" />
            <mxPoint x="1640" y="270" as="targetPoint" />
          </mxGeometry>
        </mxCell>
        <mxCell id="CGSiHUwSnQDOPpYmyWLb-9" value="" style="endArrow=halfCircle;html=1;rounded=0;endFill=0;strokeWidth=1;endSize=10;exitX=0.5;exitY=1;exitDx=0;exitDy=0;" edge="1" parent="1" source="CGSiHUwSnQDOPpYmyWLb-4">
          <mxGeometry width="50" height="50" relative="1" as="geometry">
            <mxPoint x="1720" y="270" as="sourcePoint" />
            <mxPoint x="1640" y="260" as="targetPoint" />
            <Array as="points" />
          </mxGeometry>
        </mxCell>
        <mxCell id="CGSiHUwSnQDOPpYmyWLb-10" value="&lt;font style=&quot;font-size: 17px;&quot;&gt;Banco de dados MySql&lt;/font&gt;" style="shape=module;align=left;spacingLeft=20;align=center;verticalAlign=top;whiteSpace=wrap;html=1;" vertex="1" parent="1">
          <mxGeometry x="1530" y="630" width="220" height="110" as="geometry" />
        </mxCell>
        <mxCell id="CGSiHUwSnQDOPpYmyWLb-11" value="" style="endArrow=oval;html=1;rounded=0;endFill=0;strokeWidth=1;endSize=17;exitX=0.5;exitY=0;exitDx=0;exitDy=0;" edge="1" parent="1">
          <mxGeometry width="50" height="50" relative="1" as="geometry">
            <mxPoint x="1639.29" y="630" as="sourcePoint" />
            <mxPoint x="1639.29" y="560" as="targetPoint" />
          </mxGeometry>
        </mxCell>
        <mxCell id="CGSiHUwSnQDOPpYmyWLb-12" value="" style="endArrow=halfCircle;html=1;rounded=0;endFill=0;strokeWidth=1;endSize=10;" edge="1" parent="1">
          <mxGeometry width="50" height="50" relative="1" as="geometry">
            <mxPoint x="1639.29" y="450" as="sourcePoint" />
            <mxPoint x="1639.29" y="550" as="targetPoint" />
            <Array as="points" />
          </mxGeometry>
        </mxCell>
        <mxCell id="CGSiHUwSnQDOPpYmyWLb-13" value="&lt;font style=&quot;font-size: 14px;&quot;&gt;ORM&lt;/font&gt;" style="text;html=1;align=center;verticalAlign=middle;whiteSpace=wrap;rounded=0;" vertex="1" parent="1">
          <mxGeometry x="1660" y="250" width="60" height="30" as="geometry" />
        </mxCell>
        <mxCell id="CGSiHUwSnQDOPpYmyWLb-17" style="edgeStyle=orthogonalEdgeStyle;rounded=0;orthogonalLoop=1;jettySize=auto;html=1;endArrow=halfCircle;endFill=0;endSize=10;" edge="1" parent="1" source="CGSiHUwSnQDOPpYmyWLb-15">
          <mxGeometry relative="1" as="geometry">
            <mxPoint x="680" y="105" as="targetPoint" />
          </mxGeometry>
        </mxCell>
        <mxCell id="CGSiHUwSnQDOPpYmyWLb-15" value="&lt;font style=&quot;font-size: 17px;&quot;&gt;Middleware&lt;/font&gt;" style="shape=module;align=left;spacingLeft=20;align=center;verticalAlign=top;whiteSpace=wrap;html=1;" vertex="1" parent="1">
          <mxGeometry x="800" y="50" width="220" height="110" as="geometry" />
        </mxCell>
        <mxCell id="CGSiHUwSnQDOPpYmyWLb-16" style="edgeStyle=orthogonalEdgeStyle;rounded=0;orthogonalLoop=1;jettySize=auto;html=1;endArrow=oval;endFill=0;strokeWidth=1;endSize=17;" edge="1" parent="1" source="CGSiHUwSnQDOPpYmyWLb-3">
          <mxGeometry relative="1" as="geometry">
            <mxPoint x="670" y="105" as="targetPoint" />
          </mxGeometry>
        </mxCell>
        <mxCell id="CGSiHUwSnQDOPpYmyWLb-18" value="&lt;font style=&quot;font-size: 14px;&quot;&gt;Token autenticação&lt;/font&gt;" style="text;html=1;align=center;verticalAlign=middle;whiteSpace=wrap;rounded=0;" vertex="1" parent="1">
          <mxGeometry x="640" y="130" width="60" height="30" as="geometry" />
        </mxCell>
        <mxCell id="CGSiHUwSnQDOPpYmyWLb-22" style="edgeStyle=orthogonalEdgeStyle;rounded=0;orthogonalLoop=1;jettySize=auto;html=1;endArrow=oval;endFill=0;endSize=17;exitX=0.5;exitY=1;exitDx=0;exitDy=0;" edge="1" parent="1" source="CGSiHUwSnQDOPpYmyWLb-20">
          <mxGeometry relative="1" as="geometry">
            <mxPoint x="994" y="470" as="sourcePoint" />
            <mxPoint x="994" y="650" as="targetPoint" />
          </mxGeometry>
        </mxCell>
        <mxCell id="CGSiHUwSnQDOPpYmyWLb-20" value="&lt;font style=&quot;font-size: 17px;&quot;&gt;APIs&lt;/font&gt;" style="shape=module;align=left;spacingLeft=20;align=center;verticalAlign=top;whiteSpace=wrap;html=1;" vertex="1" parent="1">
          <mxGeometry x="885" y="350" width="220" height="110" as="geometry" />
        </mxCell>
        <mxCell id="CGSiHUwSnQDOPpYmyWLb-23" style="edgeStyle=orthogonalEdgeStyle;rounded=0;orthogonalLoop=1;jettySize=auto;html=1;endArrow=halfCircle;endFill=0;endSize=10;" edge="1" parent="1" source="CGSiHUwSnQDOPpYmyWLb-21">
          <mxGeometry relative="1" as="geometry">
            <mxPoint x="995" y="660" as="targetPoint" />
          </mxGeometry>
        </mxCell>
        <mxCell id="CGSiHUwSnQDOPpYmyWLb-21" value="&lt;font style=&quot;font-size: 17px;&quot;&gt;Controller&lt;/font&gt;" style="shape=module;align=left;spacingLeft=20;align=center;verticalAlign=top;whiteSpace=wrap;html=1;" vertex="1" parent="1">
          <mxGeometry x="885" y="820" width="220" height="110" as="geometry" />
        </mxCell>
        <mxCell id="CGSiHUwSnQDOPpYmyWLb-24" value="&lt;font style=&quot;font-size: 16px;&quot;&gt;&lt;b&gt;Prisma&lt;/b&gt;&lt;/font&gt;" style="text;html=1;align=center;verticalAlign=middle;whiteSpace=wrap;rounded=0;" vertex="1" parent="1">
          <mxGeometry x="920" y="650" width="60" height="30" as="geometry" />
        </mxCell>
        <mxCell id="CGSiHUwSnQDOPpYmyWLb-25" value="&lt;div&gt;&lt;font style=&quot;font-size: 19px;&quot;&gt;&amp;lt;&amp;lt;Interface&amp;gt;&amp;gt;&lt;/font&gt;&lt;/div&gt;&lt;span style=&quot;font-size: 19px;&quot;&gt;Compartilhar treino&lt;/span&gt;" style="shape=module;align=left;spacingLeft=20;align=center;verticalAlign=top;whiteSpace=wrap;html=1;" vertex="1" parent="1">
          <mxGeometry x="330" y="820" width="220" height="110" as="geometry" />
        </mxCell>
        <mxCell id="CGSiHUwSnQDOPpYmyWLb-26" style="edgeStyle=orthogonalEdgeStyle;rounded=0;orthogonalLoop=1;jettySize=auto;html=1;entryX=0;entryY=0.5;entryDx=10;entryDy=0;entryPerimeter=0;dashed=1;" edge="1" parent="1" source="CGSiHUwSnQDOPpYmyWLb-15" target="CGSiHUwSnQDOPpYmyWLb-4">
          <mxGeometry relative="1" as="geometry" />
        </mxCell>
        <mxCell id="CGSiHUwSnQDOPpYmyWLb-27" style="edgeStyle=orthogonalEdgeStyle;rounded=0;orthogonalLoop=1;jettySize=auto;html=1;entryX=0;entryY=0.5;entryDx=10;entryDy=0;entryPerimeter=0;" edge="1" parent="1" source="CGSiHUwSnQDOPpYmyWLb-25" target="CGSiHUwSnQDOPpYmyWLb-28">
          <mxGeometry relative="1" as="geometry">
            <Array as="points">
              <mxPoint x="590" y="875" />
              <mxPoint x="590" y="575" />
            </Array>
          </mxGeometry>
        </mxCell>
        <mxCell id="CGSiHUwSnQDOPpYmyWLb-31" style="edgeStyle=orthogonalEdgeStyle;rounded=0;orthogonalLoop=1;jettySize=auto;html=1;entryX=0.5;entryY=1;entryDx=0;entryDy=0;" edge="1" parent="1" source="CGSiHUwSnQDOPpYmyWLb-28" target="CGSiHUwSnQDOPpYmyWLb-15">
          <mxGeometry relative="1" as="geometry" />
        </mxCell>
        <mxCell id="CGSiHUwSnQDOPpYmyWLb-28" value="&lt;font style=&quot;font-size: 17px;&quot;&gt;RabbitMQ&lt;/font&gt;" style="shape=module;align=left;spacingLeft=20;align=center;verticalAlign=top;whiteSpace=wrap;html=1;" vertex="1" parent="1">
          <mxGeometry x="620" y="520" width="220" height="110" as="geometry" />
        </mxCell>
        <mxCell id="CGSiHUwSnQDOPpYmyWLb-29" value="&lt;font style=&quot;font-size: 18px;&quot;&gt;&lt;b&gt;Manda treino AMQP&lt;/b&gt;&lt;/font&gt;" style="text;html=1;align=center;verticalAlign=middle;whiteSpace=wrap;rounded=0;" vertex="1" parent="1">
          <mxGeometry x="510" y="680" width="60" height="30" as="geometry" />
        </mxCell>
        <mxCell id="CGSiHUwSnQDOPpYmyWLb-30" style="edgeStyle=orthogonalEdgeStyle;rounded=0;orthogonalLoop=1;jettySize=auto;html=1;entryX=0;entryY=0.5;entryDx=10;entryDy=0;entryPerimeter=0;" edge="1" parent="1" source="CGSiHUwSnQDOPpYmyWLb-28" target="CGSiHUwSnQDOPpYmyWLb-21">
          <mxGeometry relative="1" as="geometry">
            <Array as="points">
              <mxPoint x="870" y="575" />
              <mxPoint x="870" y="875" />
            </Array>
          </mxGeometry>
        </mxCell>
        <mxCell id="CGSiHUwSnQDOPpYmyWLb-32" value="&lt;font style=&quot;font-size: 17px;&quot;&gt;&lt;b&gt;Recebe Treino&amp;nbsp;&lt;/b&gt;&lt;/font&gt;&lt;div style=&quot;font-size: 17px;&quot;&gt;&lt;font style=&quot;font-size: 17px;&quot;&gt;&lt;b&gt;AMQP&lt;/b&gt;&lt;/font&gt;&lt;/div&gt;" style="text;html=1;align=center;verticalAlign=middle;whiteSpace=wrap;rounded=0;" vertex="1" parent="1">
          <mxGeometry x="800" y="690" width="60" height="30" as="geometry" />
        </mxCell>
        <mxCell id="CGSiHUwSnQDOPpYmyWLb-33" value="&lt;font style=&quot;font-size: 17px;&quot;&gt;Services&lt;/font&gt;" style="shape=module;align=left;spacingLeft=20;align=center;verticalAlign=top;whiteSpace=wrap;html=1;" vertex="1" parent="1">
          <mxGeometry x="325" y="290" width="270" height="160" as="geometry" />
        </mxCell>
        <mxCell id="CGSiHUwSnQDOPpYmyWLb-34" value="&lt;font style=&quot;font-size: 17px;&quot;&gt;Treino service&lt;/font&gt;" style="shape=module;align=left;spacingLeft=20;align=center;verticalAlign=top;whiteSpace=wrap;html=1;" vertex="1" parent="1">
          <mxGeometry x="350" y="330" width="220" height="110" as="geometry" />
        </mxCell>
        <mxCell id="CGSiHUwSnQDOPpYmyWLb-37" style="edgeStyle=orthogonalEdgeStyle;rounded=0;orthogonalLoop=1;jettySize=auto;html=1;entryX=0.423;entryY=1.02;entryDx=0;entryDy=0;entryPerimeter=0;" edge="1" parent="1" source="CGSiHUwSnQDOPpYmyWLb-25" target="CGSiHUwSnQDOPpYmyWLb-33">
          <mxGeometry relative="1" as="geometry" />
        </mxCell>
        <mxCell id="CGSiHUwSnQDOPpYmyWLb-38" style="edgeStyle=orthogonalEdgeStyle;rounded=0;orthogonalLoop=1;jettySize=auto;html=1;entryX=0;entryY=1;entryDx=10;entryDy=0;entryPerimeter=0;" edge="1" parent="1" source="CGSiHUwSnQDOPpYmyWLb-33" target="CGSiHUwSnQDOPpYmyWLb-15">
          <mxGeometry relative="1" as="geometry">
            <Array as="points">
              <mxPoint x="810" y="320" />
            </Array>
          </mxGeometry>
        </mxCell>
        <mxCell id="CGSiHUwSnQDOPpYmyWLb-41" style="edgeStyle=orthogonalEdgeStyle;rounded=0;orthogonalLoop=1;jettySize=auto;html=1;endArrow=halfCircle;endFill=0;endSize=10;" edge="1" parent="1" source="CGSiHUwSnQDOPpYmyWLb-39">
          <mxGeometry relative="1" as="geometry">
            <mxPoint x="1160" y="310" as="targetPoint" />
          </mxGeometry>
        </mxCell>
        <mxCell id="CGSiHUwSnQDOPpYmyWLb-39" value="&lt;span style=&quot;font-size: 17px;&quot;&gt;Interfaces&lt;/span&gt;" style="shape=module;align=left;spacingLeft=20;align=center;verticalAlign=top;whiteSpace=wrap;html=1;" vertex="1" parent="1">
          <mxGeometry x="1180" y="180" width="220" height="110" as="geometry" />
        </mxCell>
        <mxCell id="CGSiHUwSnQDOPpYmyWLb-40" style="edgeStyle=orthogonalEdgeStyle;rounded=0;orthogonalLoop=1;jettySize=auto;html=1;endArrow=oval;endFill=0;endSize=15;" edge="1" parent="1" source="CGSiHUwSnQDOPpYmyWLb-20">
          <mxGeometry relative="1" as="geometry">
            <mxPoint x="1160" y="310" as="targetPoint" />
            <Array as="points">
              <mxPoint x="1160" y="405" />
            </Array>
          </mxGeometry>
        </mxCell>
        <mxCell id="CGSiHUwSnQDOPpYmyWLb-42" value="&lt;font style=&quot;font-size: 16px;&quot;&gt;&lt;b&gt;API REST&lt;/b&gt;&lt;/font&gt;" style="text;html=1;align=center;verticalAlign=middle;whiteSpace=wrap;rounded=0;" vertex="1" parent="1">
          <mxGeometry x="1158.75" y="330" width="60" height="30" as="geometry" />
        </mxCell>
        <mxCell id="CGSiHUwSnQDOPpYmyWLb-43" value="&lt;font style=&quot;font-size: 16px;&quot;&gt;&lt;b&gt;Axios&lt;/b&gt;&lt;/font&gt;" style="text;html=1;align=center;verticalAlign=middle;whiteSpace=wrap;rounded=0;" vertex="1" parent="1">
          <mxGeometry x="1090" y="290" width="60" height="30" as="geometry" />
        </mxCell>
        <mxCell id="CGSiHUwSnQDOPpYmyWLb-44" value="&lt;font style=&quot;font-size: 16px;&quot;&gt;&lt;b&gt;API REST&lt;span style=&quot;white-space: pre;&quot;&gt;&#x9;&lt;/span&gt;&lt;/b&gt;&lt;/font&gt;" style="text;html=1;align=center;verticalAlign=middle;whiteSpace=wrap;rounded=0;" vertex="1" parent="1">
          <mxGeometry x="1030" y="650" width="120" height="30" as="geometry" />
        </mxCell>
      </root>
    </mxGraphModel>
  </diagram>
</mxfile>
